<svg xmlns="http://www.w3.org/2000/svg" width="48" height="48" viewBox="0 0 48 48" fill="none">
<rect x="6" y="14" width="36" height="26" fill="#DCDCDC"/>
<path d="M24 21.5C22.1026 21.5 20.5 22.9479 20.5 24.8H21.5C21.5 23.5641 22.5888 22.5 24 22.5C25.4112 22.5 26.5 23.5641 26.5 24.8C26.5 25.6841 25.7253 26.5508 24.7399 26.9245L24.7374 26.9254C24.0245 27.2 23.5 27.8685 23.5 28.68V30H24.5V28.68C24.5 28.3238 24.7293 28.0006 25.0958 27.859C26.3042 27.4003 27.5 26.2514 27.5 24.8C27.5 22.9479 25.8974 21.5 24 21.5Z" fill="black" fill-opacity="0.9"/>
<path d="M24 31C23.5858 31 23.25 31.3358 23.25 31.75C23.25 32.1642 23.5858 32.5 24 32.5C24.4142 32.5 24.75 32.1642 24.75 31.75C24.75 31.3358 24.4142 31 24 31Z" fill="black" fill-opacity="0.9"/>
<path d="M6 7H42V13H6V7Z" fill="#DCDCDC"/>
<path fill-rule="evenodd" clip-rule="evenodd" d="M46.5234 43.9636C46.5234 44.483 46.2687 44.9325 45.9028 45.2929C45.5387 45.6516 45.0374 45.9517 44.4584 46.1929C43.2981 46.6764 41.7298 46.9636 40.0234 46.9636C38.3171 46.9636 36.7488 46.6764 35.5885 46.1929C35.0094 45.9517 34.5082 45.6516 34.1441 45.2929C33.7782 44.9325 33.5234 44.483 33.5234 43.9636V36.9636C33.5234 36.4443 33.7782 35.9948 34.1441 35.6343C34.5082 35.2756 35.0094 34.9756 35.5885 34.7343C36.7488 34.2509 38.3171 33.9636 40.0234 33.9636C41.7298 33.9636 43.2981 34.2509 44.4584 34.7343C45.0374 34.9756 45.5387 35.2756 45.9028 35.6343C46.2687 35.9948 46.5234 36.4443 46.5234 36.9636V43.9636ZM34.8458 36.3467C34.6045 36.5845 34.5234 36.7926 34.5234 36.9636C34.5234 37.1346 34.6045 37.3428 34.8458 37.5805C35.0889 37.82 35.4664 38.0587 35.9731 38.2699C36.9844 38.6912 38.4161 38.9636 40.0234 38.9636C41.6308 38.9636 43.0625 38.6912 44.0738 38.2699C44.5805 38.0587 44.9579 37.82 45.201 37.5805C45.4424 37.3428 45.5234 37.1346 45.5234 36.9636C45.5234 36.7926 45.4424 36.5845 45.201 36.3467C44.9579 36.1072 44.5805 35.8685 44.0738 35.6574C43.0625 35.236 41.6308 34.9636 40.0234 34.9636C38.4161 34.9636 36.9844 35.236 35.9731 35.6574C35.4664 35.8685 35.0889 36.1072 34.8458 36.3467ZM45.5234 38.6118V40.4636C45.5234 40.6346 45.4424 40.8428 45.201 41.0805C44.9579 41.32 44.5805 41.5587 44.0738 41.7699C43.0625 42.1912 41.6308 42.4636 40.0234 42.4636C38.4161 42.4636 36.9844 42.1912 35.9731 41.7699C35.4664 41.5587 35.0889 41.32 34.8458 41.0805C34.6045 40.8428 34.5234 40.6346 34.5234 40.4636V38.6118C34.8288 38.8333 35.1902 39.027 35.5885 39.1929C36.7488 39.6764 38.3171 39.9636 40.0234 39.9636C41.7298 39.9636 43.2981 39.6764 44.4584 39.1929C44.8566 39.027 45.2181 38.8333 45.5234 38.6118ZM45.5234 43.9636V42.1118C45.2181 42.3333 44.8566 42.527 44.4584 42.6929C43.2981 43.1764 41.7298 43.4636 40.0234 43.4636C38.3171 43.4636 36.7488 43.1764 35.5885 42.6929C35.1902 42.527 34.8288 42.3333 34.5234 42.1118V43.9636C34.5234 44.1346 34.6045 44.3428 34.8458 44.5805C35.0889 44.82 35.4664 45.0587 35.9731 45.2699C36.9844 45.6912 38.4161 45.9636 40.0234 45.9636C41.6308 45.9636 43.0625 45.6912 44.0738 45.2699C44.5805 45.0587 44.9579 44.82 45.201 44.5805C45.4424 44.3428 45.5234 44.1346 45.5234 43.9636Z" fill="black" fill-opacity="0.9"/>
</svg>